<svg xmlns="http://www.w3.org/2000/svg" width="19.584" height="30.528" viewBox="0 0 8.09 12.62" shape-rendering="geometricPrecision" image-rendering="optimizeQuality" fill-rule="evenodd" xmlns:v="https://vecta.io/nano"><defs><linearGradient id="A" gradientUnits="userSpaceOnUse" x1="2.75" y1="12.4" x2="5.34" y2=".22"><stop offset="0" stop-color="#061dd8"/><stop offset=".588" stop-color="#0375eb"/><stop offset="1" stop-color="#00cdfe"/></linearGradient></defs><ellipse cx="4.04" cy="4.01" rx="3.41" ry="3.39" stroke="#fefefe" stroke-width=".28" fill="#fefefe"/><path d="M4.04 0c2.23 0 4.04 1.78 4.04 3.97 0 1.38-1.41 3.64-2.06 4.93l-1.76 3.52c-.08.14-.15.21-.22.2s-.13-.08-.2-.2L2.05 8.9C1.4 7.61-.01 5.35-.01 3.97-.01 1.78 1.8 0 4.03 0zM6.5 5.42v.29s-.03.27-.28.28l-.01.24s-.01.22-.27.23l-.41.01s-.22-.02-.22-.18l-.01-.3H4.12h0-.08-.08 0-1.18l-.01.3c0 .16-.22.18-.22.18s-.16 0-.41-.01-.27-.23-.27-.23l-.01-.24c-.25-.01-.28-.28-.28-.28v-.29l.14-3.58c.02-.2.25-.24.25-.24h1.26v-.09c-.01-.17.21-.21.21-.21l.6-.01.6.01s.22.04.21.21v.09h1.26s.24.04.25.24l.14 3.58zm-.74-.74h.03.03.03.03.03.03.03H6h.03.01.01v.03.03.03.03.02.02.03h0v.01.01.01.01.01.01.01.01.01.01.01.01V5v.01.01.01.01.01.01.01.03h0v.02.03.03.03.03.02h-.01-.03-.03-.03-.03-.03-.03-.03-.03-.03-.03-.03-.03-.03-.03-.03-.03-.03-.03-.02-.01v-.03-.03-.03-.03-.02-.02-.03h0v-.01-.01-.01-.01-.01-.01V5v-.01-.01-.01-.01-.01-.01-.01-.01-.01-.01-.01-.01-.01-.03h0v-.02-.03-.03-.03-.03-.02h.01.03.03.03.03.03.03.03.03.03zm-3.45 0a.27.27 0 0 1 0 .54.27.27 0 0 1 0-.54zm1.65-.31h0 .08.08 0l1.58.01s.29.06.27-.26l-.03-1.94s0-.15-.17-.15H4.04 2.31c-.17 0-.17.15-.17.15l-.03 1.94c-.02.32.27.26.27.26l1.58-.01zM4.04.7c1.82 0 3.29 1.47 3.29 3.28S5.85 7.26 4.04 7.26C2.22 7.26.75 5.79.75 3.98S2.23.7 4.04.7z" fill="url(#A)"/></svg>