<svg xmlns="http://www.w3.org/2000/svg" width="19.584" height="30.528" viewBox="0 0 8.93 13.92" shape-rendering="geometricPrecision" image-rendering="optimizeQuality" fill-rule="evenodd" xmlns:v="https://vecta.io/nano"><defs><linearGradient id="A" gradientUnits="userSpaceOnUse" x1="3.03" y1="13.68" x2="5.89" y2=".24"><stop offset="0" stop-color="#015404"/><stop offset=".588" stop-color="#1a5c02"/><stop offset="1" stop-color="#336400"/></linearGradient></defs><ellipse cx="4.46" cy="4.43" rx="3.77" ry="3.75" stroke="#6e6e6e" stroke-width=".3" fill="#6e6e6e"/><path d="M4.46 0c2.47 0 4.46 1.96 4.46 4.38 0 1.53-1.56 4.01-2.28 5.44L4.7 13.71c-.09.16-.16.23-.24.22s-.15-.09-.23-.22L2.26 9.83C1.55 8.41-.01 5.92-.01 4.39c0-2.42 2-4.38 4.46-4.38zm2.72 5.98v.32s-.04.3-.31.31l-.01.26s-.01.24-.29.25l-.45.01s-.24-.02-.25-.2l-.01-.33h-1.3 0-.09-.09 0-1.3l-.01.33c0 .18-.25.2-.25.2s-.17 0-.45-.01-.29-.25-.29-.25l-.01-.26c-.27-.01-.31-.31-.31-.31v-.32l.16-3.95c.02-.22.28-.26.28-.26h1.39v-.1c-.01-.19.23-.23.23-.23l.66-.01.66.01s.24.04.23.23v.1h1.39s.26.05.28.26l.16 3.95zm-.82-.82h.03.03.03.03.03.03.03.03.03.01c.02 0 .02 0 .03.01l.02.02h0c.01.01.01.01.01.02v.03.03.03.03.02.02.03h0v.01.01.01.01.01.01.01.01.01.01.01.01.01.01.01.01.01.01.01.01.03h0v.02.03.03.03.03.03l-.01.01-.02.02c-.01.01-.01.01-.02.01h-.01-.03-.03-.03-.03-.03-.03-.03-.03-.03-.03-.03-.03-.03-.03-.03-.03-.03-.03-.02c-.02 0-.02 0-.03-.01l-.02-.02h0c-.01-.01-.01-.01-.01-.02v-.03-.03-.03-.03-.02-.02-.03h0v-.01-.01-.01-.01-.01-.01-.01-.01-.01-.01-.01-.01-.01-.01-.01-.01-.01-.01-.01-.01-.03h0v-.02-.03-.03-.03-.03-.03l.01-.01.02-.02c.01-.01.01-.01.02-.01h.01.03.03.03.03.03.03.03.03.03zm-3.8 0a.3.3 0 0 1 0 .6.3.3 0 0 1 0-.6zm1.82-.34h0 .09.09 0l1.74.01s.32.07.3-.29c-.03-.36-.04-2.14-.04-2.14s0-.17-.19-.17H4.46 2.55c-.19 0-.19.17-.19.17l-.04 2.14c-.03.36.3.29.3.29l1.74-.01zM4.47.77a3.63 3.63 0 0 1 3.64 3.62 3.63 3.63 0 0 1-3.64 3.62A3.63 3.63 0 0 1 .83 4.39 3.63 3.63 0 0 1 4.47.77z" fill="url(#A)"/><path d="M6.6 6.27a.32.32 0 0 1-.46 0L4.49 4.63 2.84 6.27a.32.32 0 0 1-.46 0 .32.32 0 0 1 0-.46l1.65-1.64-1.66-1.65a.32.32 0 0 1 0-.46.32.32 0 0 1 .46 0l1.66 1.66 1.66-1.66a.32.32 0 0 1 .46 0 .32.32 0 0 1 0 .46L4.95 4.17 6.6 5.81a.32.32 0 0 1 0 .46z" fill="#a3a3a3" fill-opacity=".702"/></svg>