<svg xmlns="http://www.w3.org/2000/svg" width="19.584" height="30.528" viewBox="0 0 8.11 12.66" shape-rendering="geometricPrecision" image-rendering="optimizeQuality" fill-rule="evenodd" xmlns:v="https://vecta.io/nano"><defs><linearGradient id="A" gradientUnits="userSpaceOnUse" x1="2.76" y1="12.44" x2="5.36" y2=".22"><stop offset="0" stop-color="#07d60b"/><stop offset=".588" stop-color="#45ea06"/><stop offset="1" stop-color="#83ff00"/></linearGradient></defs><ellipse cx="4.05" cy="4.02" rx="3.42" ry="3.4" stroke="#fefefe" stroke-width=".28" fill="#fefefe"/><path d="M4.06 0C6.3 0 8.12 1.78 8.12 3.98c0 1.39-1.42 3.65-2.07 4.94l-1.77 3.53c-.08.14-.15.21-.22.2s-.14-.08-.21-.2L2.06 8.92C1.41 7.63 0 5.36 0 3.98 0 1.78 1.82 0 4.06 0zm2.47 5.43v.29s-.03.27-.28.28l-.01.24s-.01.22-.27.23l-.41.01s-.22-.02-.22-.18L5.33 6H4.14h0-.08-.08 0-1.19l-.01.3c0 .16-.22.18-.22.18s-.16 0-.41-.01c-.26-.01-.27-.23-.27-.23L1.87 6c-.25-.01-.28-.28-.28-.28v-.29l.14-3.59c.02-.2.25-.24.25-.24h1.26v-.09c-.01-.17.21-.21.21-.21l.6-.01.6.01s.22.04.21.21v.09h1.26s.24.04.25.24l.14 3.59zm-.75-.74h.03.03.03.03.03.03.03.03.03.01.01v.03.03.03.03.02.02.03h0v.01.01.01.01.01.01.01.01.01.01.01V5v.01.01.01.01.01.01.01.01.03h0v.02.03.03.03.03.02h-.01-.03H6h-.03-.03-.03-.03-.03-.03-.03-.03-.03-.03-.03-.03-.03-.03-.03-.03-.02-.01v-.03-.03-.03-.03-.02-.02-.03h0v-.01-.01-.01-.01-.01-.01-.01V5v-.01-.01-.01-.01-.01-.01-.01-.01-.01-.01-.01-.01-.03h0v-.02-.03-.03-.03-.03-.02h.01.03.03.03.03.03.03.03.03.03zm-3.46 0a.28.28 0 1 1 0 .56.28.28 0 1 1 0-.56zm1.66-.31h0 .08.08 0l1.58.01s.29.06.27-.26l-.03-1.94s0-.15-.17-.15H4.06 2.33c-.17 0-.17.15-.17.15l-.03 1.94c-.02.32.27.26.27.26l1.58-.01zM4.06.7a3.29 3.29 0 0 1 3.3 3.29c0 1.82-1.48 3.29-3.3 3.29a3.29 3.29 0 0 1-3.3-3.29C.76 2.17 2.24.7 4.06.7z" fill="url(#A)"/></svg>