<svg xmlns="http://www.w3.org/2000/svg" width="19.584" height="30.528" viewBox="0 0 8.9 13.88" shape-rendering="geometricPrecision" image-rendering="optimizeQuality" fill-rule="evenodd" xmlns:v="https://vecta.io/nano"><defs><linearGradient id="A" gradientUnits="userSpaceOnUse" x1="3.02" y1="13.64" x2="5.87" y2=".24"><stop offset="0" stop-color="#750000"/><stop offset=".588" stop-color="#750d00"/><stop offset="1" stop-color="#751b00"/></linearGradient></defs><ellipse cx="4.45" cy="4.41" rx="3.75" ry="3.73" stroke="#6e6e6e" stroke-width=".3" fill="#6e6e6e"/><path d="M4.45 0C6.91 0 8.9 1.95 8.9 4.36c0 1.52-1.55 4-2.27 5.42l-1.94 3.87c-.09.16-.16.23-.24.22s-.15-.09-.22-.22L2.27 9.78C1.56 8.36.01 5.88.01 4.36.01 1.95 2 0 4.46 0zm2.71 5.96v.32s-.04.3-.31.31l-.01.26s-.01.24-.29.25l-.45.01s-.24-.02-.24-.2l-.01-.33h-1.3 0-.09-.09 0-1.3l-.01.33c0 .18-.24.2-.24.2s-.17 0-.45-.01-.29-.25-.29-.25l-.01-.26c-.27-.01-.31-.31-.31-.31v-.32l.16-3.94c.02-.21.28-.26.28-.26h1.38v-.1c-.01-.18.23-.23.23-.23l.66-.01.66.01s.24.04.23.23v.1h1.38s.26.05.28.26l.16 3.94zm-.82-.81h.03.03.03.03.03.03.03.03.03.01.03l.02.02h0v.03.03.03.03.03.01.02.03h0v.01.01.01.01.01.01.01.01.01.01.01.01.01.01.01.01.01.01.01.01.03h0v.02.03.03.03.03.03.01c-.01.01-.01.01-.02.01h-.03 0-.03-.03-.03-.03-.03-.03-.03-.03-.03-.03-.03-.03-.03-.03-.03-.03-.03-.03-.02-.03l-.01-.01v-.03-.03-.03-.03-.03-.01-.02-.03h0v-.01-.01-.01-.01-.01-.01-.01-.01-.01-.01-.01-.01-.01-.01-.01-.01-.01-.01-.01-.01-.03h0v-.02-.03-.03-.03-.03-.03-.01c0-.01 0-.01.01-.02h.03 0 .03.03.03.03.03.03.03.03.03zm-3.79 0a.3.3 0 0 1 0 .6.3.3 0 0 1 0-.6zm1.82-.34h0 .09.09 0l1.74.01s.32.07.3-.29c-.03-.35-.04-2.13-.04-2.13s0-.17-.19-.17h-1.9-1.9c-.19 0-.19.17-.19.17l-.04 2.13c-.03.35.3.29.3.29l1.74-.01zM4.46.77c2 0 3.62 1.62 3.62 3.61S6.46 7.99 4.46 7.99.84 6.37.84 4.38 2.46.77 4.46.77z" fill="url(#A)"/><path d="M6.57 6.25a.32.32 0 0 1-.46 0L4.47 4.61 2.83 6.25a.32.32 0 0 1-.46 0 .32.32 0 0 1 0-.46l1.64-1.64L2.36 2.5a.32.32 0 0 1 0-.46.32.32 0 0 1 .46 0l1.66 1.65 1.66-1.65a.32.32 0 0 1 .46 0 .32.32 0 0 1 0 .46L4.95 4.15l1.64 1.64a.32.32 0 0 1 0 .46z" fill="#a3a3a3" fill-opacity=".702"/></svg>