<svg xmlns="http://www.w3.org/2000/svg" viewBox="0 0 38.98 38.98"><g id="Layer_2" data-name="Layer 2"><g id="Layer_1-2" data-name="Layer 1"><g id="Layer_2-2" data-name="Layer 2"><g id="Layer_1-2-2" data-name="Layer 1-2"><rect width="38.98" height="38.98" fill="none"/><path d="M19.49,4.25A10.53,10.53,0,0,0,9,14.73a12.66,12.66,0,0,0,2.19,6.4c2.14,3.7,7.56,13.09,7.6,13.17a.77.77,0,0,0,1.07.25.75.75,0,0,0,.25-.25c0-.12,5.58-9.86,7.6-13.17a12.41,12.41,0,0,0,2.19-6.4A10.4,10.4,0,0,0,19.59,4.25Zm0,18.71a8.5,8.5,0,1,1,8.5-8.5A8.51,8.51,0,0,1,19.49,23Z" fill="#ff8400"/><rect x="15.32" y="11.15" width="2.81" height="2.81" fill="#ff8400"/><rect x="20.89" y="11.15" width="2.81" height="2.81" fill="#ff8400"/><rect x="18.09" y="13.95" width="2.81" height="2.81" fill="#ff8400"/><rect x="23.66" y="13.95" width="2.81" height="2.81" fill="#ff8400"/><rect x="12.51" y="13.95" width="2.81" height="2.81" fill="#ff8400"/></g></g></g></g></svg>