<svg xmlns="http://www.w3.org/2000/svg" viewBox="0 0 21.59 31.44"><g id="Layer_2" data-name="Layer 2"><g id="Layer_1-2" data-name="Layer 1"><path d="M10.83,0A10.86,10.86,0,0,0,0,10.83c0,2.22.89,4.27,2.26,6.61C4.47,21.26,10.07,31,10.11,31.05a.8.8,0,0,0,1.37,0c0-.12,5.76-10.19,7.85-13.61a12.85,12.85,0,0,0,2.25-6.61A10.73,10.73,0,0,0,10.83,0Zm0,19.33a8.78,8.78,0,1,1,8.78-8.78A8.8,8.8,0,0,1,10.83,19.33Z" fill="#683400"/><rect x="6.52" y="7.13" width="2.9" height="2.9" fill="#683400"/><rect x="12.28" y="7.13" width="2.9" height="2.9" fill="#683400"/><rect x="9.38" y="10.03" width="2.9" height="2.9" fill="#683400"/><rect x="15.14" y="10.03" width="2.9" height="2.9" fill="#683400"/><rect x="3.62" y="10.03" width="2.9" height="2.9" fill="#683400"/><path d="M15.59,15.34a.73.73,0,0,1-1,0l0,0-3.73-3.73L7.08,15.34a.73.73,0,0,1-1,0l0,0a.73.73,0,0,1,0-1v0l3.73-3.73L6,6.81a.73.73,0,0,1,0-1l0,0a.74.74,0,0,1,1,0l0,0,3.77,3.76,3.78-3.76a.74.74,0,0,1,1,0l0,0a.74.74,0,0,1,0,1v0L11.9,10.56l3.73,3.73a.73.73,0,0,1,0,1l0,0Z" fill="#a3a3a3" fill-opacity="0.7" fill-rule="evenodd"/></g></g></svg>